<?xml version="1.0" standalone="no"?>
<!DOCTYPE svg PUBLIC "-//W3C//DTD SVG 20010904//EN" "http://www.w3.org/TR/2001/REC-SVG-20010904/DTD/svg10.dtd">
<svg version="1.0" xmlns="http://www.w3.org/2000/svg"
 width="456.000000pt" height="456.000000pt" viewBox="0 0 456 456"
 preserveAspectRatio="xMidYMid meet">

	<g transform="translate(0.000000,456.000000) scale(0.044531,-0.044531)"
	fill="#FFFFFF" stroke="none">
		<path d="M4775 9719 c-1094 -82 -2068 -517 -2834 -1264 -489 -477 -831 -1022
-1053 -1675 -291 -858 -303 -1839 -32 -2700 136 -434 369 -898 630 -1257 443
-608 985 -1070 1644 -1399 479 -239 968 -383 1530 -451 207 -25 718 -25 920 0
566 70 1024 205 1508 447 905 452 1612 1168 2048 2075 209 436 333 863 401
1390 25 199 26 787 0 990 -57 454 -154 819 -322 1216 -516 1219 -1620 2152
-2940 2487 -497 126 -1030 176 -1500 141z m980 -1019 c655 -77 1147 -260 1294
-481 52 -78 64 -139 59 -308 -3 -124 -6 -141 -31 -192 -132 -270 -697 -481
-1477 -551 -218 -20 -810 -16 -1030 6 -448 45 -825 138 -1095 270 -204 100
-318 201 -351 313 -17 57 -19 310 -3 368 77 277 639 498 1474 579 240 24 243
24 625 21 286 -3 390 -8 535 -25z m-2480 -1445 c230 -147 606 -267 1030 -329
440 -65 1015 -73 1475 -20 539 62 981 199 1243 388 43 31 81 56 83 56 3 0 4
-109 2 -242 -3 -222 -5 -247 -24 -288 -90 -194 -442 -376 -924 -479 -642 -136
-1547 -128 -2168 20 -454 108 -756 267 -854 451 -22 41 -23 53 -26 306 l-3
263 55 -45 c31 -25 81 -61 111 -81z m-107 -836 c26 -23 83 -62 127 -88 311
-182 729 -293 1307 -348 215 -20 770 -22 973 -4 667 60 1142 193 1446 406 43
30 81 55 84 55 4 0 5 -109 3 -242 -3 -279 -8 -296 -95 -389 -506 -541 -2571
-649 -3528 -184 -182 88 -287 175 -346 285 -23 43 -24 54 -27 298 -2 138 0
252 3 252 4 0 28 -18 53 -41z m95 -980 c671 -436 2363 -523 3337 -172 151 54
352 156 440 222 l65 49 3 -211 c1 -125 -2 -233 -8 -264 -57 -273 -589 -518
-1318 -607 l-107 -14 -59 44 c-316 237 -697 242 -1000 13 l-69 -53 -110 13
c-431 47 -861 179 -1096 335 -84 56 -175 151 -204 213 -21 45 -22 65 -25 302
l-3 255 45 -42 c26 -24 74 -61 109 -83z m2036 -1123 c97 -33 170 -78 245 -152
195 -195 240 -471 118 -724 -53 -109 -168 -223 -282 -279 -158 -78 -323 -87
-482 -27 -231 86 -391 307 -405 556 -23 433 402 763 806 626z m-1808 -70 c181
-39 345 -187 399 -364 27 -87 27 -227 0 -313 -69 -225 -274 -379 -505 -379
-235 0 -440 156 -509 389 -20 69 -21 208 -1 286 47 180 215 340 398 380 81 18
137 18 218 1z m3484 -1 c88 -23 173 -73 240 -141 215 -217 210 -561 -12 -764
-102 -93 -223 -140 -363 -140 -248 0 -453 161 -515 405 -69 269 107 565 382
640 66 18 197 18 268 0z m-3133 -1184 c72 -19 170 -62 213 -94 19 -14 18 -16
-15 -43 -141 -118 -245 -285 -291 -466 -17 -68 -22 -125 -26 -320 -4 -184 -8
-238 -19 -242 -7 -3 -90 -10 -184 -17 -350 -24 -749 33 -1046 149 l-49 20 -3
243 c-3 266 0 282 61 404 77 154 173 255 302 317 131 62 163 66 596 67 351 1
393 -1 461 -18z m3465 -1 c232 -55 395 -214 463 -450 19 -64 22 -110 27 -322
l6 -247 -129 -40 c-344 -108 -622 -144 -952 -122 -97 6 -187 14 -198 17 -21 6
-22 11 -27 247 -4 202 -9 256 -26 326 -42 167 -130 313 -256 429 l-64 58 52
31 c145 86 179 91 637 92 350 1 392 -1 467 -19z m-1642 -114 c94 -27 235 -101
308 -161 122 -101 217 -248 259 -402 19 -70 22 -111 26 -399 l4 -321 -89 -31
c-310 -112 -588 -160 -965 -169 -420 -10 -809 47 -1158 169 l-95 33 0 300 c1
353 8 402 87 564 44 91 61 116 141 196 98 98 190 160 292 195 135 48 152 49
655 46 417 -2 482 -4 535 -20z"/>
	</g>
</svg>